<svg xmlns="http://www.w3.org/2000/svg" xmlns:xlink="http://www.w3.org/1999/xlink"  zoomAndPan="magnify" viewBox="60 480 1310 500"  preserveAspectRatio="xMidYMid meet" version="1.0"><defs><g/><clipPath id="c817502b21"><rect x="0" width="537" y="0" height="506"/></clipPath><clipPath id="e016e7326b"><rect x="0" width="434" y="0" height="505"/></clipPath><clipPath id="135572a371"><path d="M 97.125 629.960938 L 316.5 629.960938 L 316.5 744.808594 L 97.125 744.808594 Z M 97.125 629.960938 " clip-rule="nonzero"/></clipPath><clipPath id="6262734c2c"><path d="M 256.390625 629.960938 L 119.800781 629.960938 C 112.664062 629.960938 105.960938 633.386719 101.78125 639.167969 C 97.597656 644.949219 96.445312 652.386719 98.675781 659.164062 L 117.28125 715.605469 C 123.023438 733.03125 139.304688 744.808594 157.65625 744.808594 L 294.246094 744.808594 C 301.378906 744.808594 308.082031 741.382812 312.265625 735.601562 C 316.449219 729.820312 317.601562 722.382812 315.367188 715.605469 L 296.765625 659.164062 C 291.019531 641.738281 274.742188 629.960938 256.390625 629.960938 Z M 256.390625 629.960938 " clip-rule="nonzero"/></clipPath><clipPath id="80f7d07cc5"><path d="M 0.125 0.960938 L 219.5 0.960938 L 219.5 115.808594 L 0.125 115.808594 Z M 0.125 0.960938 " clip-rule="nonzero"/></clipPath><clipPath id="85dd0dba03"><path d="M 159.390625 0.960938 L 22.800781 0.960938 C 15.664062 0.960938 8.960938 4.386719 4.78125 10.167969 C 0.597656 15.949219 -0.554688 23.386719 1.675781 30.164062 L 20.28125 86.605469 C 26.023438 104.03125 42.304688 115.808594 60.65625 115.808594 L 197.246094 115.808594 C 204.378906 115.808594 211.082031 112.382812 215.265625 106.601562 C 219.449219 100.820312 220.601562 93.382812 218.367188 86.605469 L 199.765625 30.164062 C 194.019531 12.738281 177.742188 0.960938 159.390625 0.960938 Z M 159.390625 0.960938 " clip-rule="nonzero"/></clipPath><clipPath id="f25ccbac30"><rect x="0" width="220" y="0" height="116"/></clipPath><clipPath id="2b15d7269b"><path d="M 80.222656 705.410156 L 182.84375 705.410156 L 182.84375 820.328125 L 80.222656 820.328125 Z M 80.222656 705.410156 " clip-rule="nonzero"/></clipPath><clipPath id="c04486d9d0"><path d="M 136.707031 705.410156 L 88.503906 705.410156 C 85.894531 705.410156 83.441406 706.660156 81.910156 708.777344 C 80.378906 710.894531 79.957031 713.613281 80.777344 716.09375 L 111.585938 809.570312 C 113.6875 815.949219 119.644531 820.257812 126.359375 820.257812 L 174.5625 820.257812 C 177.171875 820.257812 179.625 819.003906 181.15625 816.886719 C 182.683594 814.773438 183.105469 812.050781 182.289062 809.570312 L 151.476562 716.09375 C 149.375 709.71875 143.421875 705.410156 136.707031 705.410156 Z M 136.707031 705.410156 " clip-rule="nonzero"/></clipPath><clipPath id="0261b2d4e6"><path d="M 0.222656 0.410156 L 102.84375 0.410156 L 102.84375 115.320312 L 0.222656 115.320312 Z M 0.222656 0.410156 " clip-rule="nonzero"/></clipPath><clipPath id="89e70aa89a"><path d="M 56.707031 0.410156 L 8.503906 0.410156 C 5.894531 0.410156 3.441406 1.660156 1.910156 3.777344 C 0.378906 5.894531 -0.0429688 8.613281 0.777344 11.09375 L 31.585938 104.570312 C 33.6875 110.949219 39.644531 115.257812 46.359375 115.257812 L 94.5625 115.257812 C 97.171875 115.257812 99.625 114.003906 101.15625 111.886719 C 102.683594 109.773438 103.105469 107.050781 102.289062 104.570312 L 71.476562 11.09375 C 69.375 4.71875 63.421875 0.410156 56.707031 0.410156 Z M 56.707031 0.410156 " clip-rule="nonzero"/></clipPath><clipPath id="fbe48d9b2b"><rect x="0" width="103" y="0" height="116"/></clipPath><clipPath id="01fe2ee704"><path d="M 97.40625 757.972656 L 365 757.972656 L 365 870.519531 L 97.40625 870.519531 Z M 97.40625 757.972656 " clip-rule="nonzero"/></clipPath><clipPath id="ba3a155366"><path d="M 304.949219 757.972656 L 119.800781 757.972656 C 112.6875 757.972656 106.007812 761.398438 101.855469 767.175781 C 97.703125 772.953125 96.585938 780.375 98.855469 787.117188 L 117.101562 841.375 C 122.960938 858.789062 139.28125 870.519531 157.65625 870.519531 L 342.804688 870.519531 C 349.921875 870.519531 356.601562 867.09375 360.75 861.320312 C 364.902344 855.542969 366.019531 848.117188 363.753906 841.375 L 345.503906 787.117188 C 339.648438 769.703125 323.324219 757.972656 304.949219 757.972656 Z M 304.949219 757.972656 " clip-rule="nonzero"/></clipPath><clipPath id="47841687fc"><path d="M 0.40625 0.972656 L 268 0.972656 L 268 113.519531 L 0.40625 113.519531 Z M 0.40625 0.972656 " clip-rule="nonzero"/></clipPath><clipPath id="c5a3eb2781"><path d="M 207.949219 0.972656 L 22.800781 0.972656 C 15.6875 0.972656 9.007812 4.398438 4.855469 10.175781 C 0.703125 15.953125 -0.414062 23.375 1.855469 30.117188 L 20.101562 84.375 C 25.960938 101.789062 42.28125 113.519531 60.65625 113.519531 L 245.804688 113.519531 C 252.921875 113.519531 259.601562 110.09375 263.75 104.320312 C 267.902344 98.542969 269.019531 91.117188 266.753906 84.375 L 248.503906 30.117188 C 242.648438 12.703125 226.324219 0.972656 207.949219 0.972656 Z M 207.949219 0.972656 " clip-rule="nonzero"/></clipPath><clipPath id="e8be1fa29b"><rect x="0" width="268" y="0" height="114"/></clipPath><clipPath id="6fbf68a88a"><path d="M 101 831.519531 L 203.523438 831.519531 L 203.523438 959 L 101 959 Z M 101 831.519531 " clip-rule="nonzero"/></clipPath><clipPath id="324618a743"><path d="M 156.941406 831.519531 L 109.710938 831.519531 C 107.0625 831.519531 104.570312 832.773438 102.984375 834.894531 C 101.402344 837.019531 100.910156 839.765625 101.667969 842.304688 L 133.109375 948.097656 C 135.011719 954.492188 140.894531 958.878906 147.566406 958.878906 L 194.792969 958.878906 C 197.445312 958.878906 199.9375 957.628906 201.523438 955.503906 C 203.105469 953.382812 203.59375 950.636719 202.839844 948.097656 L 171.394531 842.304688 C 169.492188 835.90625 163.613281 831.519531 156.941406 831.519531 Z M 156.941406 831.519531 " clip-rule="nonzero"/></clipPath><clipPath id="4f19617562"><path d="M 0 0.519531 L 102.523438 0.519531 L 102.523438 128 L 0 128 Z M 0 0.519531 " clip-rule="nonzero"/></clipPath><clipPath id="d06c2e4c61"><path d="M 55.941406 0.519531 L 8.710938 0.519531 C 6.0625 0.519531 3.570312 1.773438 1.984375 3.894531 C 0.402344 6.019531 -0.0898438 8.765625 0.667969 11.304688 L 32.109375 117.097656 C 34.011719 123.492188 39.894531 127.878906 46.566406 127.878906 L 93.792969 127.878906 C 96.445312 127.878906 98.9375 126.628906 100.523438 124.503906 C 102.105469 122.382812 102.59375 119.636719 101.839844 117.097656 L 70.394531 11.304688 C 68.492188 4.90625 62.613281 0.519531 55.941406 0.519531 Z M 55.941406 0.519531 " clip-rule="nonzero"/></clipPath><clipPath id="b26979c403"><rect x="0" width="103" y="0" height="128"/></clipPath></defs><g transform="matrix(1, 0, 0, 1, 382, 497)"><g clip-path="url(#c817502b21)"><g fill="#1764f1" fill-opacity="1"><g transform="translate(0.973906, 372.914858)"><g><path d="M 29.25 0 L 29.25 -243.734375 L 138.234375 -243.734375 C 163.066406 -243.734375 182.796875 -237.8125 197.421875 -225.96875 C 212.046875 -214.132812 219.359375 -198.234375 219.359375 -178.265625 C 219.359375 -166.890625 216.800781 -156.5625 211.6875 -147.28125 C 206.582031 -138 199.390625 -130.6875 190.109375 -125.34375 C 201.710938 -120.238281 210.707031 -112.695312 217.09375 -102.71875 C 223.476562 -92.738281 226.671875 -81.25 226.671875 -68.25 C 226.671875 -54.550781 223.1875 -42.59375 216.21875 -32.375 C 209.257812 -22.164062 199.566406 -14.21875 187.140625 -8.53125 C 174.722656 -2.84375 160.273438 0 143.796875 0 Z M 83.90625 -43.875 L 135.4375 -43.875 C 146.351562 -43.875 154.828125 -46.425781 160.859375 -51.53125 C 166.898438 -56.632812 169.921875 -63.832031 169.921875 -73.125 C 169.921875 -82.40625 166.898438 -89.597656 160.859375 -94.703125 C 154.828125 -99.804688 146.351562 -102.359375 135.4375 -102.359375 L 83.90625 -102.359375 Z M 83.90625 -144.5 L 129.875 -144.5 C 140.550781 -144.5 148.734375 -146.9375 154.421875 -151.8125 C 160.109375 -156.6875 162.953125 -163.535156 162.953125 -172.359375 C 162.953125 -181.171875 160.109375 -187.957031 154.421875 -192.71875 C 148.734375 -197.476562 140.550781 -199.859375 129.875 -199.859375 L 83.90625 -199.859375 Z M 83.90625 -144.5 "/></g></g></g><g fill="#1764f1" fill-opacity="1"><g transform="translate(226.945158, 372.914858)"><g><path d="M 26.46875 0 L 26.46875 -257.65625 L 79.390625 -257.65625 L 79.390625 0 Z M 26.46875 0 "/></g></g></g><g fill="#1764f1" fill-opacity="1"><g transform="translate(318.865584, 372.914858)"><g><path d="M 99.234375 4.875 C 75.554688 4.875 56.925781 -2.609375 43.34375 -17.578125 C 29.769531 -32.554688 22.984375 -52.695312 22.984375 -78 L 22.984375 -182.796875 L 75.90625 -182.796875 L 75.90625 -83.21875 C 75.90625 -69.75 79.097656 -59.300781 85.484375 -51.875 C 91.867188 -44.445312 100.628906 -40.734375 111.765625 -40.734375 C 123.835938 -40.734375 133.472656 -44.910156 140.671875 -53.265625 C 147.867188 -61.628906 151.46875 -73.003906 151.46875 -87.390625 L 151.46875 -182.796875 L 204.390625 -182.796875 L 204.390625 0 L 165.046875 0 L 159.46875 -20.546875 C 152.269531 -11.953125 143.445312 -5.566406 133 -1.390625 C 122.5625 2.785156 111.304688 4.875 99.234375 4.875 Z M 99.234375 4.875 "/></g></g></g></g></g><g transform="matrix(1, 0, 0, 1, 923, 497)"><g clip-path="url(#e016e7326b)"><g fill="#1764f1" fill-opacity="1"><g transform="translate(0.433059, 371.809702)"><g><path d="M 112.8125 4.875 C 93.3125 4.875 76.078125 0.8125 61.109375 -7.3125 C 46.140625 -15.4375 34.472656 -26.75 26.109375 -41.25 C 17.753906 -55.757812 13.578125 -72.535156 13.578125 -91.578125 C 13.578125 -110.609375 17.8125 -127.316406 26.28125 -141.703125 C 34.757812 -156.097656 46.484375 -167.359375 61.453125 -175.484375 C 76.421875 -183.609375 93.773438 -187.671875 113.515625 -187.671875 C 134.398438 -187.671875 152.441406 -183.023438 167.640625 -173.734375 C 182.847656 -164.453125 194.457031 -151.453125 202.46875 -134.734375 C 210.476562 -118.023438 213.90625 -98.53125 212.75 -76.25 L 66.15625 -76.25 C 68.707031 -63.71875 74.273438 -54.144531 82.859375 -47.53125 C 91.453125 -40.914062 101.785156 -37.609375 113.859375 -37.609375 C 122.679688 -37.609375 130.75 -39.289062 138.0625 -42.65625 C 145.375 -46.019531 151.234375 -50.71875 155.640625 -56.75 L 209.265625 -56.75 C 201.367188 -37.488281 188.945312 -22.398438 172 -11.484375 C 155.0625 -0.578125 135.332031 4.875 112.8125 4.875 Z M 66.5 -109.671875 L 161.5625 -109.671875 C 158.539062 -120.816406 152.910156 -129.582031 144.671875 -135.96875 C 136.429688 -142.351562 126.160156 -145.546875 113.859375 -145.546875 C 102.253906 -145.546875 92.210938 -142.351562 83.734375 -135.96875 C 75.265625 -129.582031 69.519531 -120.816406 66.5 -109.671875 Z M 66.5 -109.671875 "/></g></g></g><g fill="#1764f1" fill-opacity="1"><g transform="translate(212.448349, 371.809702)"><g><path d="M 26.46875 0 L 26.46875 -182.796875 L 65.8125 -182.796875 L 71.375 -162.25 C 78.800781 -170.84375 87.796875 -177.226562 98.359375 -181.40625 C 108.921875 -185.582031 120.238281 -187.671875 132.3125 -187.671875 C 156.21875 -187.671875 174.957031 -180.242188 188.53125 -165.390625 C 202.113281 -150.535156 208.90625 -130.457031 208.90625 -105.15625 L 208.90625 0 L 155.984375 0 L 155.984375 -99.578125 C 155.984375 -113.046875 152.789062 -123.550781 146.40625 -131.09375 C 140.03125 -138.632812 131.15625 -142.40625 119.78125 -142.40625 C 107.707031 -142.40625 97.957031 -138.226562 90.53125 -129.875 C 83.101562 -121.519531 79.390625 -110.144531 79.390625 -95.75 L 79.390625 0 Z M 26.46875 0 "/></g></g></g></g></g><g clip-path="url(#135572a371)"><g clip-path="url(#6262734c2c)"><g transform="matrix(1, 0, 0, 1, 97, 629)"><g clip-path="url(#f25ccbac30)"><g clip-path="url(#80f7d07cc5)"><g clip-path="url(#85dd0dba03)"><path fill="#3867da" d="M -7.949219 0.960938 L 228.027344 0.960938 L 228.027344 115.808594 L -7.949219 115.808594 Z M -7.949219 0.960938 " fill-opacity="1" fill-rule="nonzero"/></g></g></g></g></g></g><g clip-path="url(#2b15d7269b)"><g clip-path="url(#c04486d9d0)"><g transform="matrix(1, 0, 0, 1, 80, 705)"><g clip-path="url(#fbe48d9b2b)"><g clip-path="url(#0261b2d4e6)"><g clip-path="url(#89e70aa89a)"><path fill="#ffffff" d="M -2.746094 0.410156 L 105.8125 0.410156 L 105.8125 115.328125 L -2.746094 115.328125 Z M -2.746094 0.410156 " fill-opacity="1" fill-rule="nonzero"/></g></g></g></g></g></g><g clip-path="url(#01fe2ee704)"><g clip-path="url(#ba3a155366)"><g transform="matrix(1, 0, 0, 1, 97, 757)"><g clip-path="url(#e8be1fa29b)"><g clip-path="url(#47841687fc)"><g clip-path="url(#c5a3eb2781)"><path fill="#1764f1" d="M -7.949219 0.972656 L 276.5 0.972656 L 276.5 113.519531 L -7.949219 113.519531 Z M -7.949219 0.972656 " fill-opacity="1" fill-rule="nonzero"/></g></g></g></g></g></g><g clip-path="url(#6fbf68a88a)"><g clip-path="url(#324618a743)"><g transform="matrix(1, 0, 0, 1, 101, 831)"><g clip-path="url(#b26979c403)"><g clip-path="url(#4f19617562)"><g clip-path="url(#d06c2e4c61)"><path fill="#fffeff" d="M -2.539062 0.519531 L 105.042969 0.519531 L 105.042969 127.855469 L -2.539062 127.855469 Z M -2.539062 0.519531 " fill-opacity="1" fill-rule="nonzero"/></g></g></g></g></g></g></svg>